# xmcd
#
# Track frame offsets: 
#        150
#        23381
#        42183
#        67181
#        80606
#        99901
#        124331
#        150973
#        169446
#        194388
#        212233
#        224303
#        237048
#        245861
#        266781
#
# Disc length: 3749 seconds
#
# Revision: 0
# Processed by: cddbd v1.5.2PL0 Copyright (c) Steve Scherf et al.
# Submitted via: ExactAudioCopyFreeDBPlugin 1.0
#
DISCID=d50ea30f
DTITLE=騰格爾 - 蒼之狼SACD
DYEAR=1900
DGENRE=
TTITLE0=天堂  
TTITLE1=懷念戰友 
TTITLE2=蒙古人     
TTITLE3=我熱戀的故鄉
TTITLE4=唱給黃河聽 
TTITLE5=黃就是黃   
TTITLE6=黃土地
TTITLE7=希拉草原深處    
TTITLE8=雖說一切會過去   
TTITLE9=在銀色月光下  
TTITLE10=酒歌
TTITLE11=八千里路雲和月
TTITLE12=在那遙遠的地方
TTITLE13=草原之夜 
TTITLE14=月兒彎彎照九州   
EXTD=
EXTT0=
EXTT1=
EXTT2=
EXTT3=
EXTT4=
EXTT5=
EXTT6=
EXTT7=
EXTT8=
EXTT9=
EXTT10=
EXTT11=
EXTT12=
EXTT13=
EXTT14=
PLAYORDER=
